#!OML:ASF F:\VICON\USERDATA\INSTALL\rory3\rory3.ASF
:FULLY-SPECIFIED
:DEGREES
748
root 5.26537 16.9474 1.95403 7.44749 -15.2515 -6.57986
lowerback 21.0068 -0.402226 3.83502
upperback 5.02431 0.317203 1.14331
thorax -6.24812 0.0842696 -1.03314
lowerneck -14.2596 -0.580295 -2.26665
upperneck 37.6601 0.232351 -1.59644
head 15.6974 -0.525361 -0.262038
rclavicle 8.94531e-015 3.89618e-014
rhumerus -34.604 -7.39268 -17.2979
rradius 35.4984
rwrist 3.36181
rhand -19.4949 -46.334
rfingers 7.12502
rthumb 6.82739 -76.204
lclavicle 8.94531e-015 3.89618e-014
lhumerus -36.0509 6.99988 13.0977
lradius 28.4292
lwrist 16.5126
lhand -23.7738 -30.2892
lfingers 7.12502
lthumb 2.69577 -0.326519
rfemur -100.531 0.1218 27.0134
rtibia 95.6203
rfoot 47.7977 1.79249
rtoes -4.63063
lfemur -28.395 4.64335 -24.5441
ltibia 41.1501
lfoot -17.4357 11.4217
ltoes 14.6449
749
root 5.26471 16.9526 1.95229 7.43903 -15.1781 -6.66585
lowerback 21.0848 -0.429515 3.94337
upperback 5.03117 0.310683 1.17523
thorax -6.28095 0.0792529 -1.05873
lowerneck -14.3646 -0.588013 -2.24765
upperneck 37.6753 0.221172 -1.60018
head 15.7304 -0.528031 -0.269552
rclavicle 1.55052e-014 2.26615e-014
rhumerus -34.6282 -7.49484 -17.2652
rradius 35.4438
rwrist 3.54346
rhand -19.1894 -46.4469
rfingers 7.12502
rthumb 7.12229 -76.3071
lclavicle 1.55052e-014 2.26615e-014
lhumerus -35.9186 7.33685 12.9547
lradius 28.1979
lwrist 16.2392
lhand -23.1092 -31.6956
lfingers 7.12502
lthumb 3.33761 -1.742
rfemur -100.399 0.107265 27.1146
rtibia 95.5585
rfoot 47.7057 1.92216
rtoes -5.13184
lfemur -28.3255 4.48098 -24.4291
ltibia 41.0696
lfoot -17.3841 11.5778
ltoes 14.5489
750
root 5.2636 16.959 1.95111 7.45026 -15.1948 -6.82782
lowerback 21.0887 -0.425099 4.0887
upperback 5.10467 0.347113 1.22074
thorax -6.20017 0.0969212 -1.10175
lowerneck -14.4747 -0.559059 -2.15345
upperneck 37.5862 0.276904 -1.69686
head 15.7122 -0.503209 -0.3175
rclavicle -4.6118e-014 3.18055e-014
rhumerus -34.5119 -7.7734 -17.2142
rradius 35.1786
rwrist 3.70834
rhand -19.3529 -46.117
rfingers 7.12502
rthumb 6.96451 -75.9824
lclavicle -4.6118e-014 3.18055e-014
lhumerus -35.807 7.73987 12.8509
lradius 28.1033
lwrist 15.9684
lhand -23.1482 -33.2708
lfingers 7.12502
lthumb 3.3 -3.31662
rfemur -100.238 0.192402 27.284
rtibia 95.4767
rfoot 47.6859 1.61401
rtoes -4.76724
lfemur -28.2651 4.47964 -24.241
ltibia 41.0173
lfoot -17.3652 11.6477
ltoes 14.4968
751
root 5.26495 16.9635 1.9505 7.55094 -15.2702 -6.8567
lowerback 20.9457 -0.391915 4.14435
upperback 5.15269 0.391729 1.21713
thorax -6.07047 0.120594 -1.14851
lowerneck -14.5695 -0.576792 -2.19244
upperneck 37.5138 0.249019 -1.64935
head 15.6985 -0.512468 -0.294339
rclavicle 2.62396e-014 -4.73108e-014
rhumerus -34.4886 -8.03176 -17.1656
rradius 35.0345
rwrist 3.81437
rhand -19.673 -45.8197
rfingers 7.12502
rthumb 6.65552 -75.6951
lclavicle 2.62396e-014 -4.73108e-014
lhumerus -35.7422 7.99287 12.8052
lradius 28.0533
lwrist 15.8111
lhand -22.9637 -33.7973
lfingers 7.12502
lthumb 3.47819 -3.84596
rfemur -100.25 0.265686 27.3105
rtibia 95.4296
rfoot 47.6241 1.30872
rtoes -4.25116
lfemur -28.337 4.49991 -24.224
ltibia 40.9928
lfoot -17.3201 11.6348
ltoes 14.61
752
root 5.26733 16.9625 1.94577 7.6669 -15.2923 -6.78133
lowerback 20.8614 -0.376818 4.13852
upperback 5.14207 0.403107 1.17355
thorax -6.03706 0.126787 -1.19485
lowerneck -14.7179 -0.633206 -2.30385
upperneck 37.558 0.13038 -1.45031
head 15.7562 -0.550884 -0.210707
rclavicle -3.04141e-014 1.31198e-014
rhumerus -34.5489 -8.22084 -17.1419
rradius 35.0235
rwrist 3.9508
rhand -19.5249 -45.9737
rfingers 7.12502
rthumb 6.79842 -75.8445
lclavicle -3.04141e-014 1.31198e-014
lhumerus -35.7389 8.04029 12.7946
lradius 28.052
lwrist 15.7401
lhand -22.7452 -33.4648
lfingers 7.12502
lthumb 3.68915 -3.51699
rfemur -100.375 0.261829 27.2604
rtibia 95.4145
rfoot 47.6492 1.37919
rtoes -4.9106
lfemur -28.4835 4.46401 -24.3275
ltibia 40.9813
lfoot -17.2621 11.6606
ltoes 14.6267
753
root 5.26746 16.959 1.94079 7.68633 -15.3018 -6.68705
lowerback 20.9039 -0.377392 4.05099
upperback 5.12557 0.38515 1.14741
thorax -6.07887 0.118138 -1.1688
lowerneck -14.8261 -0.612319 -2.18336
upperneck 37.6742 0.178176 -1.58245
head 15.8412 -0.534256 -0.282724
rclavicle 2.18663e-014 8.34896e-015
rhumerus -34.5101 -8.34338 -17.1683
rradius 34.9946
rwrist 4.08599
rhand -19.3191 -46.1328
rfingers 7.12502
rthumb 6.99708 -75.9971
lclavicle 2.18663e-014 8.34896e-015
lhumerus -35.8972 7.84758 12.8769
lradius 28.2462
lwrist 15.8315
lhand -23.6447 -32.7946
lfingers 7.12502
lthumb 2.82051 -2.83351
rfemur -100.428 0.268136 27.1928
rtibia 95.4159
rfoot 47.7244 1.35415
rtoes -6.16309
lfemur -28.5647 4.42044 -24.4275
ltibia 40.9852
lfoot -17.2731 11.6716
ltoes 14.4898
754
root 5.26537 16.9572 1.9376 7.68752 -15.2892 -6.69318
lowerback 20.9592 -0.402848 4.0089
upperback 5.10923 0.348428 1.16969
thorax -6.12797 0.0998201 -1.11157
lowerneck -14.8244 -0.546959 -1.97511
upperneck 37.7863 0.342995 -1.93039
head 15.8994 -0.486431 -0.442993
rclavicle -9.74045e-015 4.57205e-014
rhumerus -34.4007 -8.49075 -17.1989
rradius 34.972
rwrist 4.25024
rhand -19.0847 -46.1426
rfingers 7.12502
rthumb 7.22341 -75.9993
lclavicle -9.74045e-015 4.57205e-014
lhumerus -36.1007 7.74106 12.8855
lradius 28.4808
lwrist 15.964
lhand -24.4705 -31.2552
lfingers 7.12502
lthumb 2.02298 -1.28504
rfemur -100.408 0.312881 27.2043
rtibia 95.4108
rfoot 47.7248 1.37481
rtoes -6.77199
lfemur -28.6068 4.37343 -24.3977
ltibia 41.0008
lfoot -17.2728 11.6706
ltoes 14.2661
755
root 5.26443 16.9568 1.93396 7.72345 -15.2508 -6.74708
lowerback 21.0158 -0.44367 4.08003
upperback 5.07399 0.314919 1.16945
thorax -6.1967 0.081262 -1.14372
lowerneck -14.8034 -0.502429 -1.86852
upperneck 37.8414 0.429172 -2.07199
head 15.9234 -0.456186 -0.509065
rclavicle -3.04141e-014 2.78299e-014
rhumerus -34.3578 -8.57444 -17.2622
rradius 34.8965
rwrist 4.48223
rhand -19.1234 -45.8683
rfingers 7.12502
rthumb 7.18601 -75.7263
lclavicle -3.04141e-014 2.78299e-014
lhumerus -36.15 7.78281 12.7547
lradius 28.5424
lwrist 16.0666
lhand -24.1888 -29.0205
lfingers 7.12502
lthumb 2.29505 0.946918
rfemur -100.401 0.329323 27.2687
rtibia 95.3984
rfoot 47.8125 1.25387
rtoes -6.24113
lfemur -28.6572 4.31226 -24.329
ltibia 41.0208
lfoot -17.2671 11.7026
ltoes 14.2567
756
root 5.26528 16.9572 1.93157 7.74277 -15.2295 -6.74279
lowerback 21.0498 -0.46638 4.11877
upperback 5.05557 0.294838 1.14999
thorax -6.23494 0.070221 -1.18158
lowerneck -14.7823 -0.468525 -1.81738
upperneck 37.8211 0.463345 -2.0749
head 15.9078 -0.434879 -0.513095
rclavicle 5.56597e-015 -4.37326e-015
rhumerus -34.3419 -8.45933 -17.3612
rradius 34.8369
rwrist 4.4619
rhand -19.6537 -45.5284
rfingers 7.12502
rthumb 6.67417 -75.4032
lclavicle 5.56597e-015 -4.37326e-015
lhumerus -36.1267 7.814 12.6658
lradius 28.4272
lwrist 15.9912
lhand -23.8414 -28.0805
lfingers 7.12502
lthumb 2.63049 1.88298
rfemur -100.404 0.308754 27.2809
rtibia 95.3819
rfoot 47.9422 0.948727
rtoes -5.38098
lfemur -28.6961 4.26348 -24.3361
ltibia 41.0537
lfoot -17.3051 11.7168
ltoes 14.5811
